<svg width="156" height="38" viewBox="0 0 156 38" fill="none" xmlns="http://www.w3.org/2000/svg">
<path d="M3.12727 5.84712C2.28163 5.84712 1.55616 5.56672 0.950854 5.00592C0.354452 4.43622 0.0562515 3.75526 0.0562515 2.96302C0.0562515 2.17969 0.354452 1.50763 0.950854 0.946832C1.55616 0.377134 2.28163 0.0922852 3.12727 0.0922852C3.97292 0.0922852 4.69394 0.377134 5.29034 0.946832C5.89565 1.50763 6.1983 2.17969 6.1983 2.96302C6.1983 3.75526 5.89565 4.43622 5.29034 5.00592C4.69394 5.56672 3.97292 5.84712 3.12727 5.84712Z" fill="#D9D9D9"/>
<path d="M106.417 5.84712C105.571 5.84712 104.846 5.56672 104.241 5.00592C103.644 4.43622 103.346 3.75526 103.346 2.96302C103.346 2.17969 103.644 1.50763 104.241 0.946832C104.846 0.377134 105.571 0.0922852 106.417 0.0922852C107.263 0.0922852 107.984 0.377134 108.58 0.946832C109.185 1.50763 109.488 2.17969 109.488 2.96302C109.488 3.75526 109.185 4.43622 108.58 5.00592C107.984 5.56672 107.263 5.84712 106.417 5.84712Z" fill="#D9D9D9"/>
<path d="M6 3C6 4.65685 4.65685 6 3 6C1.34315 6 0 4.65685 0 3C0 1.34315 1.34315 0 3 0C4.65685 0 6 1.34315 6 3Z" fill="black"/>
<path d="M110 3C110 4.65685 108.657 6 107 6C105.343 6 104 4.65685 104 3C104 1.34315 105.343 0 107 0C108.657 0 110 1.34315 110 3Z" fill="black"/>
<path d="M11 3C11 1.89543 11.8954 1 13 1H97C98.1046 1 99 1.89543 99 3C99 4.10457 98.1046 5 97 5H13C11.8954 5 11 4.10457 11 3Z" fill="black"/>
<path d="M61.5969 28.1187C63.119 28.9733 64.9349 29.4005 67.0446 29.4005C68.7359 29.4005 70.2269 29.1424 71.5176 28.6261C72.8172 28.1009 73.8765 27.371 74.6955 26.4363C75.5233 25.4928 76.0707 24.389 76.3378 23.125L71.077 22.7778C70.8812 23.2941 70.5963 23.7303 70.2224 24.0863C69.8486 24.4424 69.3991 24.7094 68.8739 24.8875C68.3487 25.0655 67.7701 25.1545 67.1381 25.1545C66.1856 25.1545 65.3622 24.9542 64.6679 24.5536C63.9736 24.1531 63.435 23.5834 63.0523 22.8446C62.6784 22.1057 62.4915 21.2289 62.4915 20.2142V20.2008H59.1401V16.6758H62.4968C62.5311 15.9394 62.7207 15.2673 63.0656 14.6596C63.4395 13.992 63.9558 13.4624 64.6145 13.0707C65.2821 12.6701 66.0476 12.4698 66.9111 12.4698C67.7389 12.4698 68.4644 12.6523 69.0875 13.0173C69.7195 13.3733 70.2135 13.8674 70.5696 14.4994C70.9257 15.1314 71.1037 15.8569 71.1037 16.6758H62.4968C62.494 16.7377 62.4922 16.8 62.4915 16.8627V20.2008H76.458V18.6386C76.458 16.8939 76.2132 15.3717 75.7236 14.0721C75.234 12.7636 74.5486 11.6776 73.6673 10.8142C72.795 9.95071 71.7713 9.30535 70.5963 8.87808C69.4302 8.44191 68.1706 8.22382 66.8176 8.22382C64.8059 8.22382 63.0523 8.6689 61.5568 9.55905C60.0703 10.4492 58.9175 11.691 58.0986 13.2843C57.2796 14.8777 56.8702 16.7292 56.8702 18.8389C56.8702 21.0019 57.2796 22.8757 58.0986 24.4602C58.9175 26.0358 60.0836 27.2553 61.5969 28.1187Z" fill="black"/>
<path d="M59.1401 16.6758V20.2008H62.4915V16.8627C62.4922 16.8 62.494 16.7377 62.4968 16.6758H59.1401Z" fill="black"/>
<path d="M85.8579 17.1431V29H80.1699V8.49086H85.5909V12.1093H85.8312C86.2852 10.9165 87.0463 9.97297 88.1145 9.27865C89.1827 8.57543 90.4778 8.22382 92 8.22382C93.4242 8.22382 94.666 8.53537 95.7253 9.15848C96.7846 9.78158 97.6079 10.6717 98.1954 11.8289C98.7829 12.9772 99.0767 14.3481 99.0767 15.9414V29H93.3886V16.9562C93.3975 15.7011 93.0771 14.7219 92.4273 14.0187C91.7775 13.3066 90.8829 12.9505 89.7435 12.9505C88.9779 12.9505 88.3014 13.1152 87.7139 13.4446C87.1353 13.7739 86.6813 14.2546 86.352 14.8866C86.0315 15.5097 85.8668 16.2619 85.8579 17.1431Z" fill="black"/>
<path d="M103.56 29V8.49086H109.248V29H103.56Z" fill="black"/>
<path d="M123.071 29.4005C120.97 29.4005 119.163 28.9554 117.65 28.0653C116.145 27.1662 114.988 25.92 114.178 24.3267C113.377 22.7333 112.976 20.8996 112.976 18.8255C112.976 16.7248 113.381 14.8822 114.191 13.2977C115.01 11.7043 116.172 10.4625 117.676 9.5724C119.181 8.67335 120.97 8.22382 123.044 8.22382C124.833 8.22382 126.4 8.54873 127.744 9.19853C129.088 9.84835 130.152 10.7608 130.935 11.9358C131.719 13.1108 132.15 14.4905 132.23 16.075H126.863C126.711 15.0513 126.311 14.2279 125.661 13.6048C125.02 12.9728 124.179 12.6568 123.137 12.6568C122.256 12.6568 121.486 12.8971 120.828 13.3778C120.178 13.8496 119.67 14.5394 119.305 15.4474C118.94 16.3554 118.758 17.4547 118.758 18.7454C118.758 20.0539 118.936 21.1666 119.292 22.0835C119.657 23.0003 120.169 23.6991 120.828 24.1798C121.486 24.6605 122.256 24.9008 123.137 24.9008C123.787 24.9008 124.37 24.7673 124.887 24.5002C125.412 24.2332 125.844 23.846 126.182 23.3386C126.529 22.8223 126.756 22.2036 126.863 21.4826H132.23C132.141 23.0493 131.714 24.429 130.949 25.6218C130.192 26.8057 129.146 27.7315 127.811 28.3991C126.476 29.0667 124.896 29.4005 123.071 29.4005Z" fill="black"/>
<path fill-rule="evenodd" clip-rule="evenodd" d="M145.139 29.4005C143.065 29.4005 141.271 28.9599 139.758 28.0786C138.253 27.1885 137.092 25.9512 136.273 24.3667C135.454 22.7733 135.044 20.9263 135.044 18.8255C135.044 16.707 135.454 14.8554 136.273 13.271C137.092 11.6776 138.253 10.4403 139.758 9.55905C141.271 8.6689 143.065 8.22382 145.139 8.22382C147.213 8.22382 149.002 8.6689 150.506 9.55905C152.02 10.4403 153.186 11.6776 154.005 13.271C154.824 14.8554 155.233 16.707 155.233 18.8255C155.233 20.9263 154.824 22.7733 154.005 24.3667C153.186 25.9512 152.02 27.1885 150.506 28.0786C149.002 28.9599 147.213 29.4005 145.139 29.4005ZM147.529 24.1931C146.897 24.7272 146.109 24.9943 145.165 24.9943C144.213 24.9943 143.412 24.7272 142.762 24.1931C142.121 23.6501 141.636 22.9113 141.307 21.9767C140.986 21.042 140.826 19.9783 140.826 18.7855C140.826 17.5927 140.986 16.5289 141.307 15.5943C141.636 14.6596 142.121 13.9208 142.762 13.3778C143.412 12.8348 144.213 12.5633 145.165 12.5633C146.109 12.5633 146.897 12.8348 147.529 13.3778C148.161 13.9208 148.637 14.6596 148.957 15.5943C149.287 16.5289 149.451 17.5927 149.451 18.7855C149.451 19.9783 149.287 21.042 148.957 21.9767C148.637 22.9113 148.161 23.6501 147.529 24.1931Z" fill="black"/>
<path fill-rule="evenodd" clip-rule="evenodd" d="M43.144 37.1181C41.3014 37.1181 39.7214 36.8644 38.404 36.3571C37.0955 35.8586 36.054 35.1776 35.2795 34.3142C34.5051 33.4507 34.0022 32.4804 33.7707 31.4034L39.0315 30.6957C39.1918 31.1052 39.4455 31.4879 39.7926 31.844C40.1398 32.2001 40.5982 32.4849 41.1679 32.6985C41.7465 32.9211 42.4497 33.0323 43.2776 33.0323C44.5149 33.0323 45.5341 32.7297 46.3352 32.1244C47.1453 31.528 47.5503 30.5266 47.5503 29.1201V25.3681H47.3099C47.0607 25.9378 46.6868 26.4764 46.1884 26.9838C45.6899 27.4911 45.049 27.9051 44.2656 28.2255C43.4823 28.546 42.5476 28.7062 41.4616 28.7062C39.9217 28.7062 38.5197 28.3501 37.2557 27.638C36.0006 26.917 34.9991 25.8177 34.2514 24.34C33.5126 22.8535 33.1432 20.9752 33.1432 18.7054C33.1432 16.3821 33.5215 14.4415 34.2781 12.8838C35.0348 11.326 36.0406 10.1599 37.2957 9.38547C38.5598 8.61104 39.9439 8.22382 41.4483 8.22382C42.5966 8.22382 43.558 8.41965 44.3324 8.81132C45.1068 9.19409 45.7299 9.67477 46.2017 10.2534C46.6824 10.8231 47.0518 11.3839 47.3099 11.9358H47.5236V8.49086H53.1716V29.2002C53.1716 30.9449 52.7443 32.4048 51.8898 33.5798C51.0352 34.7548 49.8513 35.636 48.3381 36.2235C46.8337 36.8199 45.1024 37.1181 43.144 37.1181ZM45.5875 23.7525C44.9555 24.2065 44.1811 24.4335 43.2642 24.4335C42.3295 24.4335 41.5418 24.202 40.9009 23.7392C40.2688 23.2674 39.7837 22.6042 39.4455 21.7497C39.1161 20.8862 38.9514 19.8626 38.9514 18.6786C38.9514 17.5126 39.1161 16.4844 39.4455 15.5943C39.7748 14.7041 40.2599 14.0098 40.9009 13.5113C41.5418 13.0039 42.3295 12.7502 43.2642 12.7502C44.1811 12.7502 44.9599 12.995 45.6009 13.4846C46.2418 13.9742 46.7313 14.6641 47.0696 15.5542C47.4079 16.4355 47.577 17.4769 47.577 18.6786C47.577 19.8804 47.4034 20.9129 47.0562 21.7764C46.718 22.6309 46.2284 23.2896 45.5875 23.7525Z" fill="black"/>
<path d="M16.2025 17.1431V29H10.5144V8.49086H15.9354V12.1093H16.1758C16.6298 10.9165 17.3908 9.97297 18.459 9.27865C19.5272 8.57543 20.8224 8.22382 22.3445 8.22382C23.7688 8.22382 25.0105 8.53537 26.0698 9.15848C27.1291 9.78158 27.9525 10.6717 28.54 11.8289C29.1275 12.9772 29.4212 14.3481 29.4212 15.9414V29H23.7332V16.9562C23.7421 15.7011 23.4216 14.7219 22.7718 14.0187C22.122 13.3066 21.2274 12.9505 20.088 12.9505C19.3225 12.9505 18.646 13.1152 18.0585 13.4446C17.4799 13.7739 17.0259 14.2546 16.6965 14.8866C16.3761 15.5097 16.2114 16.2619 16.2025 17.1431Z" fill="black"/>
<path d="M0.269888 29V8.49086H5.95796V29H0.269888Z" fill="black"/>
</svg>
